<svg width="128" height="208" viewBox="0 0 128 208" fill="none" xmlns="http://www.w3.org/2000/svg">
<g id="ls">
<path fill-rule="evenodd" clip-rule="evenodd" d="M28.3547 4H4V157.645C4 187.018 30.7902 204 67.3222 204C91.6769 204 111.161 189.842 118.467 177.98C124.854 167.611 125.773 150.866 120.903 141.828C113.048 127.255 89.0075 116.722 67.3222 112.252C45.6369 107.781 32.9447 96.9047 32.9447 83.1608C32.9447 65.0146 52.7094 59.1049 67.3222 59.1049C84.3705 59.1049 101.419 67.2654 101.419 87.6008L123.338 87.6136C123.338 60.4998 101.419 40.1517 67.3222 40.1517C52.7094 40.1517 44.2333 40.1517 28.3547 49.1896V4ZM28.3547 116.974C36.6175 122.881 47.8384 127.142 52.7094 128.271C57.5803 129.401 79.4995 135.05 86.806 139.569H28.3547V116.974ZM101.419 157.645H28.3547C28.3547 171.202 47.1559 182.182 67.3222 182.182C87.4885 182.182 101.419 171.202 101.419 157.645Z" fill="url(#paint0_linear_210_3)"/>
<path d="M28.3547 49.1896V4H4V157.645C4 187.018 30.7902 204 67.3222 204C91.6769 204 111.161 189.842 118.467 177.98C124.854 167.611 125.773 150.866 120.903 141.828C113.048 127.255 89.0075 116.722 67.3222 112.252C45.6369 107.781 32.9447 96.9047 32.9447 83.1608C32.9447 65.0146 52.7094 59.1049 67.3222 59.1049C84.3705 59.1049 101.419 67.2654 101.419 87.6008L123.338 87.6136C123.338 60.4998 101.419 40.1517 67.3222 40.1517C52.7094 40.1517 44.2333 40.1517 28.3547 49.1896ZM28.3547 49.1896C15.4573 59.1049 10.9347 70.8888 10.9347 83.1608C10.9347 93.2308 10.9347 104.52 28.3547 116.974M28.3547 116.974C36.6175 122.881 47.8384 127.142 52.7094 128.271C57.5803 129.401 79.4995 135.05 86.806 139.569H28.3547V116.974ZM28.3547 157.645H101.419C101.419 171.202 87.4885 182.182 67.3222 182.182C47.1559 182.182 28.3547 171.202 28.3547 157.645Z" stroke="url(#paint1_linear_210_3)" stroke-width="6.0893"/>
</g>
<defs>
<linearGradient id="paint0_linear_210_3" x1="64" y1="4" x2="64" y2="204" gradientUnits="userSpaceOnUse">
<stop stop-color="#04585C"/>
<stop offset="0.492583" stop-color="#02CCD3"/>
<stop offset="1" stop-color="#04585C"/>
</linearGradient>
<linearGradient id="paint1_linear_210_3" x1="64" y1="4" x2="64" y2="204" gradientUnits="userSpaceOnUse">
<stop offset="0.00391" stop-color="#04585C"/>
<stop offset="0.447972" stop-color="#02C1C7"/>
<stop offset="0.566591" stop-color="#02BFC5"/>
<stop offset="1" stop-color="#04585C"/>
</linearGradient>
</defs>
</svg>
