<svg width="750" height="750" viewBox="0 0 750 750" fill="none" xmlns="http://www.w3.org/2000/svg">
<rect width="750" height="750" fill="url(#paint0_radial_501_2)"/>
<path d="M339.844 2.00587C267.92 8.89064 195.996 38.1875 139.893 83.4512C110.303 107.328 77.9297 143.656 57.7148 175.736C27.6855 223.197 6.00586 286.918 2.05078 338.773L1.02539 351.957L118.652 351.664L236.133 351.225L238.77 340.678C244.922 316.654 256.494 296.439 274.658 277.982C294.727 257.621 314.063 246.195 341.162 238.871C356.104 234.77 391.26 234.33 406.348 238.139C433.594 245.023 454.541 256.889 474.609 277.25C493.506 296.293 504.932 316.068 511.23 340.678L513.867 351.225L631.348 351.664L748.975 351.957L748.096 339.799C742.822 271.684 712.647 197.563 666.797 140.287C651.856 121.537 620.068 90.6289 601.318 76.4199C526.025 20.0235 431.982 -6.78319 339.844 2.00587Z" fill="#E40A0A"/>
<path d="M354.639 282.842C338.525 286.358 321.533 295.879 309.082 308.477C272.461 345.098 272.168 403.545 308.35 439.58C326.221 457.305 345.85 466.387 369.727 467.705C412.5 470.049 451.758 442.803 464.795 401.495C469.336 386.993 469.336 361.797 464.795 347.295C450 300.713 402.1 272.588 354.639 282.842Z" fill="white"/>
<path d="M2.05078 410.523C5.12695 451.832 19.9219 502.369 40.8691 543.531C59.1797 579.127 77.9297 605.347 106.201 634.498C138.574 667.75 167.432 688.99 208.154 709.205C328.564 769.263 468.164 760.767 581.543 686.793C622.998 659.693 665.186 616.48 692.139 573.707C722.754 524.927 743.994 462.818 748.096 409.498L748.975 397.339L631.348 397.632L513.867 398.072L511.084 408.765C504.785 433.375 493.213 453.296 473.877 472.779C447.656 498.853 419.385 511.744 382.91 514.087C316.699 518.043 255.176 473.218 238.77 408.619L236.133 398.072L118.652 397.632L1.02539 397.339L2.05078 410.523Z" fill="white"/>
<defs>
<radialGradient id="paint0_radial_501_2" cx="0" cy="0" r="1" gradientUnits="userSpaceOnUse" gradientTransform="translate(375 375) rotate(143.084) scale(374.6)">
<stop offset="0.0301976"/>
<stop offset="0.9999"/>
<stop offset="1" stop-opacity="0"/>
</radialGradient>
</defs>
</svg>
