<svg width="86" height="86" viewBox="0 0 86 86" fill="none" xmlns="http://www.w3.org/2000/svg">
<g id="pokeBola">
<circle id="black" cx="43" cy="43" r="43" fill="black"/>
<path id="red" d="M39.0179 0.187829C30.7596 0.978337 22.5013 4.3422 16.0595 9.53936C12.662 12.2809 8.94494 16.4521 6.62388 20.1355C3.17592 25.585 0.686663 32.9014 0.232542 38.8554L0.114807 40.3691L13.6207 40.3355L27.1098 40.285L27.4125 39.0741C28.1189 36.3157 29.4477 33.9946 31.5333 31.8754C33.8375 29.5375 36.0577 28.2256 39.1692 27.3846C40.8848 26.9137 44.9214 26.8632 46.6538 27.3005C49.7822 28.0911 52.1874 29.4534 54.4916 31.7913C56.6613 33.9778 57.9732 36.2484 58.6964 39.0741L58.9992 40.285L72.4883 40.3355L85.9942 40.3691L85.8932 38.9731C85.2878 31.1522 81.823 22.6416 76.5585 16.0653C74.843 13.9124 71.1932 10.3635 69.0403 8.73203C60.3952 2.2566 49.5972 -0.821329 39.0179 0.187829Z" fill="#E40A0A"/>
<path id="circle" d="M40.7166 32.4337C38.8665 32.8374 36.9154 33.9306 35.4858 35.3771C31.281 39.5819 31.2473 46.2928 35.4017 50.4304C37.4537 52.4655 39.7074 53.5083 42.449 53.6597C47.3602 53.9288 51.8678 50.8004 53.3647 46.0574C53.8861 44.3922 53.8861 41.4993 53.3647 39.8342C51.666 34.4857 46.1661 31.2564 40.7166 32.4337Z" fill="white"/>
<path id="white" d="M0.232542 47.0936C0.585748 51.8366 2.2845 57.6393 4.68966 62.3655C6.79207 66.4526 8.94494 69.4632 12.1911 72.8103C15.9081 76.6283 19.2215 79.0671 23.8973 81.3881C37.7228 88.284 53.7516 87.3085 66.7697 78.8148C71.5296 75.7032 76.3735 70.7415 79.4683 65.8303C82.9835 60.2294 85.4223 53.098 85.8932 46.9758L85.9942 45.5798L72.4883 45.6135L58.9992 45.6639L58.6796 46.8917C57.9564 49.7174 56.6277 52.0048 54.4075 54.2418C51.3969 57.2356 48.1507 58.7157 43.9627 58.9848C36.3604 59.4389 29.2963 54.2922 27.4125 46.8749L27.1098 45.6639L13.6207 45.6135L0.114807 45.5798L0.232542 47.0936Z" fill="white"/>
</g>
</svg>
